<?xml version="1.0" encoding="UTF-8" standalone="no"?> <svg xmlns="http://www.w3.org/2000/svg" xmlns:xlink="http://www.w3.org/1999/xlink" xmlns:serif="http://www.serif.com/" width="100%" height="100%" viewBox="0 0 3988 2346" version="1.1" xml:space="preserve" style="fill-rule:evenodd;clip-rule:evenodd;stroke-linejoin:round;stroke-miterlimit:2;"> <g transform="matrix(4.16667,0,0,4.16667,0,0)"> <path d="M115.419,491.681C113.692,491.681 112.146,491.378 110.783,490.769C109.425,490.161 108.278,489.327 107.342,488.265C106.403,487.198 105.684,485.941 105.185,484.493C104.682,483.035 104.431,481.462 104.431,479.774L104.431,456.837C104.431,456.63 104.263,456.462 104.056,456.462L101.353,456.462C101.146,456.462 100.978,456.63 100.978,456.837L100.978,479.8C100.978,481.893 101.31,483.847 101.972,485.663C102.636,487.487 103.594,489.077 104.843,490.433C106.094,491.792 107.614,492.859 109.405,493.633C111.19,494.405 113.195,494.793 115.419,494.793C117.644,494.793 119.648,494.405 121.433,493.633C123.224,492.859 124.745,491.792 125.996,490.433C127.245,489.077 128.201,487.487 128.867,485.663C129.529,483.847 129.86,481.893 129.86,479.8L129.86,456.837C129.86,456.63 129.692,456.462 129.485,456.462L126.809,456.462C126.602,456.462 126.434,456.63 126.434,456.837L126.434,479.8C126.434,481.488 126.183,483.062 125.68,484.52C125.181,485.967 124.458,487.224 123.511,488.29C122.566,489.352 121.415,490.182 120.057,490.781C118.694,491.382 117.147,491.681 115.419,491.681ZM883.368,461.526L883.999,460.317C884.075,460.172 884.048,459.994 883.932,459.879C882.634,458.581 881.195,457.618 879.616,456.988C878.042,456.359 876.265,456.042 874.287,456.042C872.518,456.042 870.943,456.319 869.562,456.869C868.173,457.422 867.007,458.158 866.063,459.074C865.114,459.994 864.393,461.056 863.901,462.259C863.409,463.459 863.163,464.705 863.163,465.996C863.163,467.656 863.448,469.037 864.005,470.141C864.564,471.249 865.302,472.173 866.219,472.914C867.123,473.645 868.149,474.246 869.296,474.715C870.418,475.174 871.571,475.588 872.756,475.959C873.926,476.325 875.065,476.7 876.174,477.084C877.256,477.458 878.224,477.921 879.076,478.474C879.905,479.012 880.572,479.682 881.078,480.485C881.579,481.281 881.822,482.296 881.822,483.527C881.822,484.685 881.621,485.771 881.218,486.787C880.818,487.794 880.238,488.665 879.48,489.398C878.717,490.134 877.781,490.715 876.675,491.142C875.558,491.572 874.289,491.786 872.868,491.786C871.833,491.786 870.908,491.685 870.094,491.482C869.279,491.278 868.558,491.029 867.93,490.732C867.305,490.437 866.756,490.117 866.283,489.772C865.802,489.42 865.39,489.095 865.046,488.795C864.695,488.488 864.396,488.229 864.15,488.018C863.812,487.728 863.519,487.613 863.302,487.613C862.913,487.613 862.566,487.783 862.274,488.147C862.266,488.158 862.258,488.169 862.251,488.18L861.516,489.335C861.426,489.476 861.441,489.659 861.551,489.785C862.914,491.327 864.501,492.541 866.312,493.429C868.126,494.318 870.288,494.766 872.802,494.766C874.744,494.766 876.469,494.463 877.98,493.861C879.499,493.254 880.783,492.425 881.832,491.376C882.884,490.325 883.686,489.088 884.239,487.665C884.789,486.249 885.065,484.738 885.065,483.133C885.065,481.541 884.78,480.211 884.221,479.141C883.662,478.07 882.923,477.169 882.007,476.437C881.104,475.716 880.08,475.116 878.934,474.638C877.813,474.171 876.661,473.743 875.478,473.355C874.306,472.971 873.166,472.583 872.056,472.19C870.974,471.807 870.007,471.336 869.155,470.774C868.324,470.226 867.654,469.563 867.147,468.783C866.648,468.015 866.406,467.041 866.406,465.865C866.406,464.952 866.576,464.081 866.918,463.252C867.257,462.426 867.755,461.699 868.41,461.071C869.069,460.439 869.887,459.942 870.862,459.576C871.851,459.206 872.997,459.023 874.298,459.023C875.599,459.023 876.693,459.179 877.58,459.499C878.471,459.821 879.215,460.171 879.809,460.551C880.403,460.932 880.874,461.278 881.222,461.59C881.677,462 882.066,462.172 882.355,462.172C882.793,462.172 883.136,461.965 883.368,461.526ZM92.578,461.526L93.209,460.317C93.285,460.172 93.257,459.994 93.141,459.879C91.843,458.581 90.404,457.618 88.826,456.988C87.251,456.359 85.475,456.042 83.496,456.042C81.727,456.042 80.153,456.319 78.772,456.869C77.382,457.422 76.217,458.158 75.272,459.074C74.323,459.994 73.603,461.056 73.11,462.259C72.618,463.459 72.373,464.705 72.373,465.996C72.373,467.656 72.657,469.037 73.214,470.141C73.773,471.249 74.512,472.173 75.429,472.914C76.333,473.645 77.358,474.246 78.506,474.715C79.628,475.174 80.781,475.588 81.965,475.959C83.135,476.325 84.275,476.7 85.384,477.084C86.466,477.458 87.433,477.921 88.285,478.474C89.114,479.012 89.782,479.682 90.288,480.485C90.789,481.281 91.032,482.296 91.032,483.527C91.032,484.685 90.831,485.771 90.428,486.787C90.027,487.794 89.448,488.665 88.689,489.398C87.926,490.134 86.991,490.715 85.884,491.142C84.768,491.572 83.498,491.786 82.077,491.786C81.043,491.786 80.118,491.685 79.304,491.482C78.489,491.278 77.767,491.029 77.139,490.732C76.514,490.437 75.965,490.117 75.492,489.772C75.012,489.42 74.6,489.095 74.256,488.795C73.905,488.488 73.606,488.229 73.36,488.018C73.022,487.728 72.729,487.613 72.511,487.613C72.123,487.613 71.776,487.783 71.484,488.147C71.475,488.158 71.468,488.169 71.46,488.18L70.725,489.335C70.636,489.476 70.65,489.659 70.761,489.785C72.124,491.327 73.711,492.541 75.522,493.429C77.335,494.318 79.498,494.766 82.012,494.766C83.953,494.766 85.679,494.463 87.189,493.861C88.709,493.254 89.993,492.425 91.042,491.376C92.093,490.325 92.896,489.088 93.449,487.665C93.999,486.249 94.275,484.738 94.275,483.133C94.275,481.541 93.989,480.211 93.431,479.141C92.871,478.07 92.133,477.169 91.217,476.437C90.314,475.716 89.29,475.116 88.144,474.638C87.023,474.171 85.87,473.743 84.687,473.355C83.516,472.971 82.376,472.583 81.266,472.19C80.184,471.807 79.216,471.336 78.364,470.774C77.533,470.226 76.863,469.563 76.357,468.783C75.858,468.015 75.616,467.041 75.616,465.865C75.616,464.952 75.786,464.081 76.127,463.252C76.467,462.426 76.965,461.699 77.62,461.071C78.278,460.439 79.097,459.942 80.072,459.576C81.061,459.206 82.206,459.023 83.508,459.023C84.809,459.023 85.903,459.179 86.79,459.499C87.681,459.821 88.424,460.171 89.019,460.551C89.612,460.932 90.084,461.278 90.431,461.59C90.886,462 91.275,462.172 91.564,462.172C92.003,462.172 92.346,461.965 92.578,461.526ZM538.793,461.526L539.424,460.317C539.5,460.172 539.473,459.994 539.357,459.879C538.059,458.581 536.62,457.618 535.041,456.988C533.467,456.359 531.691,456.042 529.712,456.042C527.943,456.042 526.368,456.319 524.987,456.869C523.598,457.422 522.432,458.158 521.487,459.074C520.539,459.994 519.818,461.056 519.326,462.259C518.834,463.459 518.588,464.705 518.588,465.996C518.588,467.656 518.873,469.037 519.43,470.141C519.989,471.249 520.728,472.173 521.643,472.914C522.547,473.645 523.573,474.246 524.721,474.715C525.843,475.174 526.996,475.588 528.181,475.959C529.351,476.325 530.49,476.7 531.599,477.084C532.681,477.458 533.649,477.921 534.501,478.474C535.33,479.012 535.997,479.682 536.503,480.485C537.004,481.281 537.247,482.296 537.247,483.527C537.247,484.685 537.046,485.771 536.643,486.787C536.243,487.794 535.663,488.665 534.905,489.398C534.142,490.134 533.206,490.715 532.1,491.142C530.983,491.572 529.714,491.786 528.293,491.786C527.258,491.786 526.333,491.685 525.519,491.482C524.704,491.278 523.982,491.029 523.354,490.732C522.729,490.437 522.181,490.117 521.708,489.772C521.227,489.42 520.815,489.095 520.472,488.795C520.12,488.488 519.82,488.229 519.575,488.018C519.237,487.728 518.943,487.613 518.727,487.613C518.338,487.613 517.991,487.783 517.698,488.147C517.69,488.158 517.682,488.169 517.676,488.18L516.94,489.335C516.851,489.476 516.866,489.659 516.976,489.785C518.339,491.327 519.926,492.541 521.737,493.429C523.551,494.318 525.713,494.766 528.227,494.766C530.169,494.766 531.894,494.463 533.405,493.861C534.924,493.254 536.208,492.425 537.257,491.376C538.309,490.325 539.111,489.088 539.664,487.665C540.214,486.249 540.49,484.738 540.49,483.133C540.49,481.541 540.205,480.211 539.646,479.141C539.087,478.07 538.349,477.169 537.432,476.437C536.529,475.716 535.505,475.116 534.359,474.638C533.238,474.171 532.086,473.743 530.903,473.355C529.732,472.971 528.591,472.583 527.481,472.19C526.399,471.807 525.432,471.336 524.58,470.774C523.749,470.226 523.078,469.563 522.572,468.783C522.073,468.015 521.831,467.041 521.831,465.865C521.831,464.952 522.002,464.081 522.343,463.252C522.682,462.426 523.18,461.699 523.835,461.071C524.494,460.439 525.312,459.942 526.287,459.576C527.276,459.206 528.422,459.023 529.723,459.023C531.024,459.023 532.119,459.179 533.005,459.499C533.897,459.821 534.64,460.171 535.234,460.551C535.828,460.932 536.299,461.278 536.647,461.59C537.102,462 537.491,462.172 537.78,462.172C538.218,462.172 538.561,461.965 538.793,461.526ZM215.475,461.526L216.106,460.317C216.182,460.172 216.155,459.994 216.039,459.879C214.741,458.581 213.302,457.618 211.723,456.988C210.149,456.359 208.373,456.042 206.394,456.042C204.625,456.042 203.05,456.319 201.669,456.869C200.28,457.422 199.114,458.158 198.17,459.074C197.221,459.994 196.5,461.056 196.008,462.259C195.516,463.459 195.27,464.705 195.27,465.996C195.27,467.656 195.555,469.037 196.112,470.141C196.671,471.249 197.41,472.173 198.327,472.914C199.23,473.645 200.256,474.246 201.403,474.715C202.525,475.174 203.679,475.588 204.863,475.959C206.033,476.325 207.173,476.7 208.282,477.084C209.364,477.458 210.331,477.921 211.183,478.474C212.012,479.012 212.68,479.682 213.185,480.485C213.686,481.281 213.929,482.296 213.929,483.527C213.929,484.685 213.728,485.771 213.325,486.787C212.925,487.794 212.346,488.665 211.587,489.398C210.824,490.134 209.888,490.715 208.782,491.142C207.665,491.572 206.396,491.786 204.975,491.786C203.94,491.786 203.015,491.685 202.201,491.482C201.386,491.278 200.665,491.029 200.037,490.732C199.412,490.437 198.863,490.117 198.39,489.772C197.909,489.42 197.497,489.095 197.154,488.795C196.802,488.488 196.503,488.229 196.257,488.018C195.919,487.728 195.627,487.613 195.409,487.613C195.02,487.613 194.673,487.783 194.381,488.147C194.373,488.158 194.365,488.169 194.358,488.18L193.623,489.335C193.533,489.476 193.548,489.659 193.658,489.785C195.021,491.327 196.608,492.541 198.419,493.429C200.233,494.318 202.395,494.766 204.909,494.766C206.851,494.766 208.576,494.463 210.087,493.861C211.606,493.254 212.89,492.425 213.94,491.376C214.991,490.325 215.794,489.088 216.346,487.665C216.897,486.249 217.172,484.738 217.172,483.133C217.172,481.541 216.887,480.211 216.328,479.141C215.769,478.07 215.031,477.169 214.114,476.437C213.212,475.716 212.188,475.116 211.042,474.638C209.92,474.171 208.768,473.743 207.585,473.355C206.414,472.971 205.273,472.583 204.163,472.19C203.081,471.807 202.114,471.336 201.262,470.774C200.431,470.226 199.761,469.563 199.254,468.783C198.755,468.015 198.513,467.041 198.513,465.865C198.513,464.952 198.684,464.081 199.025,463.252C199.365,462.426 199.862,461.699 200.517,461.071C201.176,460.439 201.994,459.942 202.97,459.576C203.958,459.206 205.104,459.023 206.405,459.023C207.706,459.023 208.801,459.179 209.688,459.499C210.579,459.821 211.322,460.171 211.916,460.551C212.51,460.932 212.981,461.278 213.329,461.59C213.784,462 214.173,462.172 214.462,462.172C214.9,462.172 215.243,461.965 215.475,461.526ZM258.086,475.391C258.086,472.492 257.648,469.855 256.777,467.481C255.901,465.095 254.667,463.055 253.077,461.357C251.484,459.656 249.577,458.344 247.357,457.422C245.144,456.503 242.691,456.042 239.996,456.042C237.337,456.042 234.9,456.508 232.687,457.436C230.468,458.367 228.562,459.678 226.969,461.369C225.379,463.058 224.14,465.094 223.256,467.48C222.375,469.855 221.933,472.492 221.933,475.391C221.933,478.308 222.375,480.954 223.256,483.329C224.14,485.714 225.379,487.751 226.969,489.439C228.562,491.131 230.468,492.438 232.688,493.36C234.901,494.279 237.337,494.74 239.996,494.74C242.691,494.74 245.144,494.279 247.357,493.36C249.577,492.438 251.483,491.131 253.076,489.439C254.667,487.75 255.901,485.714 256.777,483.328C257.648,480.953 258.086,478.308 258.086,475.391ZM512.12,475.391C512.12,472.492 511.684,469.855 510.812,467.481C509.937,465.095 508.703,463.055 507.112,461.357C505.519,459.656 503.613,458.344 501.393,457.422C499.18,456.503 496.727,456.042 494.032,456.042C491.372,456.042 488.936,456.508 486.722,457.436C484.503,458.367 482.598,459.678 481.005,461.369C479.414,463.058 478.176,465.094 477.291,467.48C476.411,469.855 475.969,472.492 475.969,475.391C475.969,478.308 476.411,480.954 477.291,483.329C478.176,485.714 479.414,487.751 481.005,489.439C482.598,491.131 484.504,492.438 486.724,493.36C488.937,494.279 491.373,494.74 494.032,494.74C496.727,494.74 499.18,494.279 501.393,493.36C503.612,492.438 505.518,491.131 507.112,489.439C508.702,487.75 509.937,485.714 510.812,483.328C511.684,480.953 512.12,478.308 512.12,475.391ZM856.696,475.391C856.696,472.492 856.259,469.855 855.387,467.481C854.512,465.095 853.278,463.055 851.687,461.357C850.094,459.656 848.188,458.344 845.968,457.422C843.755,456.503 841.301,456.042 838.607,456.042C835.947,456.042 833.511,456.508 831.297,457.436C829.078,458.367 827.172,459.678 825.58,461.369C823.989,463.058 822.751,465.094 821.866,467.48C820.986,469.855 820.544,472.492 820.544,475.391C820.544,478.308 820.986,480.954 821.866,483.329C822.751,485.714 823.989,487.751 825.58,489.439C827.173,491.131 829.079,492.438 831.299,493.36C833.512,494.279 835.948,494.74 838.607,494.74C841.301,494.74 843.755,494.279 845.968,493.36C848.187,492.438 850.093,491.131 851.687,489.439C853.277,487.75 854.512,485.714 855.387,483.328C856.259,480.953 856.696,478.308 856.696,475.391ZM705.403,479.388L711.93,479.388C714.022,479.388 715.899,479.104 717.562,478.541C719.238,477.973 720.662,477.178 721.834,476.16C723.013,475.134 723.916,473.914 724.542,472.499C725.166,471.088 725.479,469.542 725.479,467.859C725.479,464.2 724.321,461.388 722.029,459.414C719.76,457.458 716.397,456.462 711.93,456.462L702.351,456.462C702.144,456.462 701.976,456.63 701.976,456.837L701.976,493.971C701.976,494.179 702.144,494.346 702.351,494.346L705.028,494.346C705.235,494.346 705.403,494.179 705.403,493.971L705.403,479.388ZM433.069,494.346C433.194,494.346 433.31,494.284 433.38,494.18C433.45,494.077 433.463,493.945 433.416,493.829L418.221,456.695C418.163,456.554 418.026,456.462 417.874,456.462L415.197,456.462C415.045,456.462 414.908,456.554 414.85,456.695L399.655,493.829C399.608,493.945 399.621,494.077 399.691,494.18C399.76,494.284 399.877,494.346 400.002,494.346L402.049,494.346C402.386,494.346 402.673,494.247 402.913,494.054C403.143,493.871 403.302,493.651 403.396,493.399L407.656,482.852L425.389,482.852L429.678,493.407C429.791,493.677 429.95,493.894 430.152,494.063C430.373,494.247 430.652,494.346 430.995,494.346L433.069,494.346ZM360.12,462.387L374.353,487.021C374.693,487.612 375.159,487.891 375.727,487.891L376.147,487.891C376.74,487.891 377.204,487.607 377.524,487.016L391.36,462.448L391.36,493.971C391.36,494.179 391.528,494.346 391.735,494.346L394.097,494.346C394.304,494.346 394.472,494.179 394.472,493.971L394.472,456.837C394.472,456.63 394.304,456.462 394.097,456.462L392.234,456.462C391.933,456.462 391.697,456.5 391.525,456.565C391.328,456.639 391.114,456.819 390.917,457.139C390.915,457.143 390.913,457.147 390.91,457.151L376.319,482.948C376.181,483.19 376.054,483.445 375.94,483.713C375.83,483.461 375.711,483.218 375.585,482.982C375.583,482.978 375.581,482.975 375.579,482.971L360.594,457.148C360.592,457.145 360.591,457.142 360.589,457.139C360.391,456.818 360.172,456.636 359.961,456.562C359.781,456.499 359.543,456.462 359.246,456.462L357.409,456.462C357.202,456.462 357.034,456.63 357.034,456.837L357.034,493.971C357.034,494.179 357.202,494.346 357.409,494.346L359.745,494.346C359.952,494.346 360.12,494.179 360.12,493.971L360.12,462.387ZM755.344,456.837C755.344,456.63 755.176,456.462 754.969,456.462L732.715,456.462C732.508,456.462 732.34,456.63 732.34,456.837L732.34,493.971C732.34,494.179 732.508,494.346 732.715,494.346L754.969,494.346C755.176,494.346 755.344,494.179 755.344,493.971L755.344,491.741C755.344,491.534 755.176,491.366 754.969,491.366L735.793,491.366L735.793,476.632L751.689,476.632C751.896,476.632 752.064,476.464 752.064,476.257L752.064,474.079C752.064,473.872 751.896,473.704 751.689,473.704L735.793,473.704L735.793,459.443L754.969,459.443C755.176,459.443 755.344,459.275 755.344,459.068L755.344,456.837ZM154.162,479.388L160.689,479.388C162.781,479.388 164.658,479.104 166.32,478.541C167.997,477.973 169.421,477.178 170.593,476.16C171.772,475.134 172.675,473.914 173.301,472.499C173.925,471.088 174.238,469.542 174.238,467.859C174.238,464.2 173.08,461.388 170.788,459.414C168.519,457.458 165.156,456.462 160.689,456.462L151.11,456.462C150.903,456.462 150.735,456.63 150.735,456.837L150.735,493.971C150.735,494.179 150.903,494.346 151.11,494.346L153.787,494.346C153.994,494.346 154.162,494.179 154.162,493.971L154.162,479.388ZM299.209,456.837C299.209,456.63 299.041,456.462 298.834,456.462L276.58,456.462C276.373,456.462 276.205,456.63 276.205,456.837L276.205,493.971C276.205,494.179 276.373,494.346 276.58,494.346L298.834,494.346C299.041,494.346 299.209,494.179 299.209,493.971L299.209,491.741C299.209,491.534 299.041,491.366 298.834,491.366L279.658,491.366L279.658,476.632L295.554,476.632C295.761,476.632 295.929,476.464 295.929,476.257L295.929,474.079C295.929,473.872 295.761,473.704 295.554,473.704L279.658,473.704L279.658,459.443L298.834,459.443C299.041,459.443 299.209,459.275 299.209,459.068L299.209,456.837ZM767.574,477.551L772.054,477.551C772.699,477.551 773.177,477.611 773.484,477.752C773.777,477.888 774.047,478.124 774.303,478.455L786.193,493.521C786.424,493.815 786.663,494.021 786.905,494.146C787.154,494.277 787.452,494.346 787.8,494.346L790.135,494.346C790.279,494.346 790.411,494.264 790.473,494.134C790.536,494.005 790.519,493.851 790.429,493.738L777.651,477.68C777.494,477.474 777.328,477.287 777.154,477.117C778.471,476.91 779.672,476.566 780.76,476.089C782.097,475.501 783.24,474.75 784.189,473.838C785.145,472.918 785.878,471.848 786.387,470.628C786.896,469.412 787.151,468.07 787.151,466.6C787.151,463.266 786.036,460.743 783.832,459.022C781.663,457.328 778.387,456.462 773.996,456.462L764.522,456.462C764.315,456.462 764.147,456.63 764.147,456.837L764.147,493.971C764.147,494.179 764.315,494.346 764.522,494.346L767.199,494.346C767.406,494.346 767.574,494.179 767.574,493.971L767.574,477.551ZM589.67,475.391C589.67,472.491 589.232,469.875 588.361,467.544C587.484,465.201 586.249,463.208 584.657,461.563C583.063,459.915 581.156,458.652 578.936,457.774C576.725,456.901 574.273,456.462 571.581,456.462L558.039,456.462C557.832,456.462 557.664,456.63 557.664,456.837L557.664,493.971C557.664,494.179 557.832,494.346 558.039,494.346L571.581,494.346C574.273,494.346 576.725,493.908 578.936,493.034C581.156,492.157 583.063,490.894 584.657,489.246C586.249,487.601 587.484,485.607 588.361,483.264C589.232,480.933 589.67,478.309 589.67,475.391ZM680.341,472.873L669.44,457.155C669.336,456.989 669.215,456.844 669.08,456.719C668.911,456.563 668.652,456.462 668.288,456.462L665.637,456.462C665.497,456.462 665.368,456.54 665.304,456.665C665.24,456.789 665.25,456.939 665.331,457.054L677.985,474.919L664.727,493.756C664.646,493.87 664.636,494.02 664.701,494.144C664.765,494.268 664.893,494.346 665.033,494.346L667.474,494.346C667.779,494.346 668.046,494.245 668.274,494.042C668.449,493.886 668.605,493.721 668.741,493.546C668.745,493.541 668.748,493.536 668.752,493.531L680.246,477.181C680.294,477.115 680.339,477.046 680.381,476.977L691.698,493.521C691.797,493.678 691.923,493.839 692.08,494.005C692.287,494.226 692.568,494.346 692.93,494.346L695.581,494.346C695.72,494.346 695.848,494.269 695.913,494.145C695.978,494.021 695.968,493.872 695.888,493.757L682.682,474.79L695.361,457.055C695.443,456.941 695.454,456.791 695.389,456.666C695.325,456.541 695.196,456.462 695.056,456.462L692.484,456.462C692.209,456.462 691.975,456.554 691.783,456.733C691.644,456.862 691.515,457.005 691.397,457.163C691.395,457.166 691.392,457.169 691.39,457.172L680.499,472.603L680.341,472.873ZM440.259,456.462L438.947,456.462C438.74,456.462 438.572,456.63 438.572,456.837L438.572,493.971C438.572,494.179 438.74,494.346 438.947,494.346L441.283,494.346C441.49,494.346 441.658,494.179 441.658,493.971L441.658,462.716C441.658,462.627 441.657,462.538 441.655,462.448C441.655,462.447 465.045,493.668 465.045,493.668C465.366,494.123 465.793,494.346 466.319,494.346L467.605,494.346C467.812,494.346 467.98,494.179 467.98,493.971L467.98,456.837C467.98,456.63 467.812,456.462 467.605,456.462L465.243,456.462C465.036,456.462 464.868,456.63 464.868,456.837L464.868,487.988C464.868,488.084 464.869,488.182 464.871,488.28L441.583,457.111C441.376,456.835 441.171,456.666 440.987,456.585C440.81,456.508 440.569,456.462 440.259,456.462ZM185.148,494.346C185.355,494.346 185.523,494.179 185.523,493.971L185.523,456.837C185.523,456.63 185.355,456.462 185.148,456.462L182.445,456.462C182.238,456.462 182.07,456.63 182.07,456.837L182.07,493.971C182.07,494.179 182.238,494.346 182.445,494.346L185.148,494.346ZM820.297,456.837C820.297,456.63 820.129,456.462 819.922,456.462L791.08,456.462C790.873,456.462 790.705,456.63 790.705,456.837L790.705,459.12C790.705,459.327 790.873,459.495 791.08,459.495L803.827,459.495L803.827,493.971C803.827,494.179 803.995,494.346 804.202,494.346L806.879,494.346C807.086,494.346 807.254,494.179 807.254,493.971L807.254,459.495L819.922,459.495C820.129,459.495 820.297,459.327 820.297,459.12L820.297,456.837ZM620.559,456.837C620.559,456.63 620.391,456.462 620.184,456.462L597.929,456.462C597.722,456.462 597.554,456.63 597.554,456.837L597.554,493.971C597.554,494.179 597.722,494.346 597.929,494.346L620.184,494.346C620.391,494.346 620.559,494.179 620.559,493.971L620.559,491.741C620.559,491.534 620.391,491.366 620.184,491.366L601.007,491.366L601.007,476.632L616.903,476.632C617.11,476.632 617.278,476.464 617.278,476.257L617.278,474.079C617.278,473.872 617.11,473.704 616.903,473.704L601.007,473.704L601.007,459.443L620.184,459.443C620.391,459.443 620.559,459.275 620.559,459.068L620.559,456.837ZM308.911,456.462L307.599,456.462C307.392,456.462 307.224,456.63 307.224,456.837L307.224,493.971C307.224,494.179 307.392,494.346 307.599,494.346L309.935,494.346C310.142,494.346 310.31,494.179 310.31,493.971L310.31,462.716C310.31,462.627 310.309,462.538 310.307,462.448C310.307,462.447 333.697,493.668 333.697,493.668C334.018,494.123 334.445,494.346 334.971,494.346L336.257,494.346C336.464,494.346 336.632,494.179 336.632,493.971L336.632,456.837C336.632,456.63 336.464,456.462 336.257,456.462L333.895,456.462C333.688,456.462 333.52,456.63 333.52,456.837L333.52,487.988C333.52,488.084 333.521,488.182 333.523,488.28L310.235,457.111C310.028,456.835 309.823,456.666 309.639,456.585C309.462,456.508 309.221,456.462 308.911,456.462ZM661.708,456.837C661.708,456.63 661.54,456.462 661.333,456.462L639.079,456.462C638.872,456.462 638.704,456.63 638.704,456.837L638.704,493.971C638.704,494.179 638.872,494.346 639.079,494.346L661.333,494.346C661.54,494.346 661.708,494.179 661.708,493.971L661.708,491.741C661.708,491.534 661.54,491.366 661.333,491.366L642.157,491.366L642.157,476.632L658.053,476.632C658.26,476.632 658.428,476.464 658.428,476.257L658.428,474.079C658.428,473.872 658.26,473.704 658.053,473.704L642.157,473.704L642.157,459.443L661.333,459.443C661.54,459.443 661.708,459.275 661.708,459.068L661.708,456.837ZM853.164,475.391C853.164,477.952 852.814,480.242 852.109,482.261C851.41,484.266 850.426,485.969 849.155,487.368C847.889,488.762 846.364,489.823 844.579,490.554C842.785,491.289 840.794,491.654 838.607,491.654C836.455,491.654 834.486,491.289 832.7,490.554C830.924,489.823 829.393,488.761 828.11,487.367C826.822,485.968 825.825,484.265 825.117,482.26C824.404,480.241 824.049,477.951 824.049,475.391C824.049,472.848 824.404,470.562 825.117,468.535C825.825,466.522 826.822,464.815 828.11,463.416C829.394,462.021 830.925,460.954 832.702,460.214C834.487,459.472 836.455,459.102 838.607,459.102C840.794,459.102 842.784,459.472 844.578,460.215C846.363,460.954 847.888,462.02 849.155,463.414C850.426,464.813 851.41,466.52 852.109,468.534C852.814,470.562 853.164,472.848 853.164,475.391ZM508.589,475.391C508.589,477.952 508.239,480.242 507.534,482.261C506.835,484.266 505.851,485.969 504.58,487.368C503.314,488.762 501.789,489.823 500.004,490.554C498.21,491.289 496.219,491.654 494.032,491.654C491.88,491.654 489.911,491.289 488.126,490.554C486.349,489.823 484.819,488.761 483.535,487.367C482.247,485.968 481.25,484.265 480.542,482.26C479.829,480.241 479.474,477.951 479.474,475.391C479.474,472.848 479.829,470.562 480.542,468.535C481.25,466.522 482.247,464.815 483.535,463.416C484.819,462.021 486.35,460.954 488.127,460.214C489.912,459.472 491.88,459.102 494.032,459.102C496.219,459.102 498.209,459.472 500.003,460.215C501.788,460.954 503.313,462.02 504.58,463.414C505.851,464.813 506.835,466.52 507.534,468.534C508.239,470.562 508.589,472.848 508.589,475.391ZM254.554,475.391C254.554,477.952 254.203,480.242 253.499,482.261C252.799,484.266 251.815,485.969 250.544,487.368C249.278,488.762 247.753,489.823 245.969,490.554C244.175,491.289 242.184,491.654 239.996,491.654C237.844,491.654 235.875,491.289 234.09,490.554C232.313,489.823 230.783,488.761 229.499,487.367C228.211,485.968 227.215,484.265 226.507,482.26C225.794,480.241 225.439,477.951 225.439,475.391C225.439,472.848 225.794,470.562 226.507,468.535C227.215,466.522 228.211,464.815 229.499,463.416C230.783,462.021 232.314,460.954 234.091,460.214C235.876,459.472 237.845,459.102 239.996,459.102C242.183,459.102 244.174,459.472 245.968,460.215C247.752,460.954 249.278,462.02 250.544,463.414C251.815,464.813 252.799,466.52 253.499,468.534C254.203,470.562 254.554,472.848 254.554,475.391ZM586.138,475.391C586.138,477.951 585.788,480.228 585.084,482.221C584.385,484.198 583.402,485.87 582.132,487.234C580.866,488.593 579.341,489.629 577.556,490.343C575.761,491.061 573.769,491.418 571.581,491.418L561.117,491.418L561.117,459.39L571.581,459.39C573.769,459.39 575.761,459.748 577.556,460.466C579.341,461.179 580.866,462.215 582.132,463.575C583.402,464.939 584.385,466.61 585.084,468.588C585.788,470.581 586.138,472.849 586.138,475.391ZM408.773,480.107L416.15,461.881C416.275,461.56 416.4,461.207 416.525,460.824C416.528,460.813 416.532,460.802 416.535,460.791C416.539,460.803 416.543,460.813 416.546,460.824C416.672,461.209 416.797,461.554 416.923,461.859L424.298,480.107L408.773,480.107ZM154.162,476.486L154.162,459.338L160.689,459.338C164.059,459.338 166.6,460.064 168.302,461.554C169.984,463.027 170.811,465.132 170.811,467.859C170.811,469.099 170.582,470.243 170.121,471.291C169.662,472.335 169.002,473.241 168.142,474.009C167.275,474.783 166.219,475.387 164.974,475.825C163.716,476.267 162.287,476.486 160.689,476.486L154.162,476.486ZM705.403,476.486L705.403,459.338L711.93,459.338C715.3,459.338 717.841,460.064 719.543,461.554C721.225,463.027 722.053,465.132 722.053,467.859C722.053,469.099 721.824,470.243 721.363,471.291C720.903,472.335 720.243,473.241 719.383,474.009C718.516,474.783 717.46,475.387 716.215,475.825C714.957,476.267 713.528,476.486 711.93,476.486L705.403,476.486ZM767.574,474.806L767.574,459.338L773.996,459.338C777.203,459.338 779.651,459.942 781.331,461.18C782.972,462.391 783.777,464.254 783.777,466.757C783.777,467.994 783.554,469.105 783.102,470.091C782.654,471.071 782.002,471.91 781.146,472.607C780.281,473.313 779.221,473.854 777.968,474.232C776.697,474.616 775.259,474.806 773.655,474.806L767.574,474.806Z" style="fill:rgb(188,124,42);fill-rule:nonzero;"></path> <path d="M179.529,230.716C188.578,233.398 193.642,234.735 194.731,234.735C196.971,234.735 199.095,234.084 201.114,232.786C203.125,231.488 204.512,229.457 205.283,226.69L210.247,226.69L212.541,282.689L207.008,282.689C203.845,271.606 199.715,262.667 194.619,255.87C184.892,243.082 171.814,236.692 155.383,236.692C138.775,236.692 125.216,243.589 114.687,257.385C104.147,271.176 98.884,290.16 98.884,314.341C98.884,336.569 104.422,354.324 115.513,367.581C122.742,376.233 131.225,382.066 140.967,385.076C146.16,386.681 151.711,387.484 157.619,387.484C169.896,387.484 181.219,384.395 191.561,378.222C197.514,374.742 204.032,369.464 211.15,362.4L215.583,367.031C210.313,373.987 203.78,380.09 195.96,385.341C182.653,394.238 168.206,398.675 152.659,398.675C127.122,398.675 106.844,390.123 91.824,372.995C77.967,357.173 71.042,337.421 71.042,313.717C71.042,289.467 78.358,269.088 92.975,252.615C108.359,235.336 128.397,226.69 153.074,226.69C161.665,226.69 170.481,228.035 179.529,230.716Z" style="fill:rgb(19,64,100);fill-rule:nonzero;"></path> <path d="M307.684,303.486C320.328,297.991 326.645,287.66 326.645,272.489C326.645,257.884 320.995,247.929 309.672,242.601C303.63,239.729 295.605,238.292 285.615,238.292C278.865,238.292 274.741,238.803 273.226,239.826C271.711,240.857 270.963,243.252 270.963,247.015L270.963,309.082C288.083,308.435 300.325,306.576 307.684,303.486ZM225.962,389.878C235.332,388.998 241.168,387.146 243.477,384.337C245.783,381.523 246.941,374.967 246.941,364.682L246.941,256.284C246.941,247.53 245.643,241.787 243.059,239.063C240.478,236.346 234.785,234.626 225.962,233.893L225.962,229.092L292.071,229.092C305.828,229.092 317.294,230.921 326.459,234.579C343.877,241.508 352.581,254.245 352.581,272.803C352.581,285.262 348.713,294.826 340.998,301.498C333.259,308.175 322.762,312.577 309.49,314.689L358.587,378.179C361.606,382.008 364.636,384.786 367.659,386.538C370.677,388.289 374.549,389.401 379.28,389.878L379.28,394.679L340.525,394.679L280.814,317.483L270.963,318.282L270.963,367.546C270.963,376.718 272.308,382.535 274.974,384.991C277.636,387.448 283.468,389.08 292.458,389.878L292.458,394.679L225.962,394.679L225.962,389.878Z" style="fill:rgb(19,64,100);fill-rule:nonzero;"></path> <path d="M384.697,389.878C394.586,388.828 400.934,386.483 403.747,382.871C406.549,379.264 407.959,370.866 407.959,357.703L407.959,256.311C407.959,247.301 406.607,241.43 403.906,238.702C401.197,235.99 395.044,234.378 385.453,233.893L385.453,229.092L431.88,229.092L487.077,354.153L540.825,229.092L587.973,229.092L587.973,233.893C579.107,234.54 573.387,236.226 570.83,238.946C568.268,241.674 566.994,247.456 566.994,256.311L566.994,367.336C566.994,376.427 568.268,382.255 570.83,384.825C573.387,387.382 579.107,389.068 587.973,389.878L587.973,394.679L521.616,394.679L521.616,389.878C531.145,389.068 537.093,387.262 539.438,384.464C541.79,381.655 542.96,374.966 542.96,364.411L542.96,252.3L481.761,394.679L478.509,394.679L418.259,258.144L418.259,357.703C418.259,371.355 420.166,380.256 424.002,384.394C426.494,387.08 432.074,388.901 440.754,389.878L440.754,394.679L384.697,394.679L384.697,389.878Z" style="fill:rgb(19,64,100);fill-rule:nonzero;"></path> <path d="M640.037,415.508L71.042,415.51L71.042,425.555L884.69,425.552L884.69,415.507L884.685,415.507C884.688,413.852 884.69,412.041 884.69,410.144C884.69,403.894 880.648,398.58 875.037,396.676C875.13,393.656 875.234,389.14 875.234,384.097C875.234,373.746 867.616,365.161 857.685,363.646L857.685,346.723C857.685,343.58 856.436,340.566 854.214,338.344C851.991,336.121 848.977,334.873 845.834,334.873L678.889,334.873C675.746,334.873 672.731,336.121 670.509,338.344C668.286,340.566 667.038,343.58 667.038,346.723L667.038,363.646C657.107,365.161 649.489,373.746 649.489,384.097C649.489,389.14 649.593,393.656 649.685,396.676C644.075,398.58 640.033,403.894 640.033,410.144C640.033,411.946 640.034,413.781 640.037,415.508ZM658.349,384.097C658.349,377.569 663.65,372.269 670.178,372.269L675.898,372.269L675.898,349.981C675.898,348.318 676.561,346.723 677.741,345.55C678.921,344.377 680.52,343.723 682.184,343.732C682.235,343.733 682.263,343.733 682.263,343.733L838.307,343.733C839.992,343.733 841.605,344.413 842.781,345.619C843.957,346.825 844.597,348.455 844.554,350.139C844.553,355.266 844.553,361.603 844.553,361.603L844.553,372.269L850.273,372.269C856.801,372.269 862.101,377.569 862.101,384.097C862.101,392.959 861.947,404.786 861.947,404.786L866.41,404.786C869.367,404.786 871.768,407.187 871.768,410.144C871.768,413.102 871.734,415.503 871.734,415.503L648.958,415.503C648.958,415.503 648.893,413.102 648.893,410.144C648.893,407.187 651.294,404.786 654.251,404.786L658.124,404.786C658.124,404.786 658.349,392.959 658.349,384.097ZM732.152,248.198C684.615,297.724 685.583,321.082 685.583,321.082L685.663,325.431L845.115,325.431L845.822,321.86C852.145,289.897 851.659,269.448 851.019,261.212L856.57,259.96L856.57,256.418C856.57,225.623 851.599,202.715 849.602,194.759L854.895,190.904L854.034,187.922C845.982,160.029 837.71,145.749 833.585,139.81L837.532,135.974L835.605,132.934C824.579,115.539 813.06,105.1 807.065,100.356L811.016,95.971L807.794,93.002C790.264,77.212 771.291,68.062 766.241,65.794C765.467,65.447 761.427,63.088 760.782,66.383C760.629,67.161 759.513,72.536 758.73,77.428C754.826,66.824 744.376,59.968 734.801,55.469C729.096,52.79 724.221,51.971 722.406,52.109C722.216,52.124 718.604,52.411 718.322,56.215C718.314,56.322 718.292,56.902 718.263,57.868C718.039,65.447 717.167,98.183 716.977,105.724L691.514,138.463C686.105,145.418 683.168,153.977 683.168,162.788L683.168,168.086C683.168,172.618 682.158,177.092 680.21,181.184C674.129,193.961 659.405,222.171 651.614,238.54C647.009,248.215 650.807,259.8 660.246,264.87C666.775,268.376 674.365,272.453 679.6,275.262C684.863,278.089 691.401,276.698 695.058,271.971C699.633,266.075 711.697,255.289 732.152,248.198ZM755.864,98.019C751.584,73.901 740.082,67.74 731.034,63.489C729.568,62.801 728.204,62.245 727.016,61.832C726.709,73.099 726.017,99.209 725.816,106.773C725.78,108.13 725.311,109.44 724.478,110.511C719.083,117.449 698.509,143.902 698.509,143.902C694.309,149.302 692.029,155.948 692.029,162.788L692.029,168.086C692.029,173.935 690.724,179.71 688.211,184.992C682.129,197.769 667.405,225.979 659.614,242.348C657.04,247.755 659.163,254.231 664.439,257.064C670.966,260.57 678.555,264.646 683.79,267.455L683.791,267.455C685.241,268.235 687.043,267.851 688.052,266.547L688.054,266.544C693.613,259.38 708.307,245.847 735.441,237.842C757.089,231.456 764.694,217.131 767.944,206.793L773.089,206.793C773.079,207.006 773.032,207.224 773.032,207.451C773.032,223.593 749.799,243.026 749.799,243.026C707.977,283.628 700.825,307.425 698.325,316.57L833.089,317.628C838.218,290.176 838.051,272.211 837.548,264.257L832.09,265.478C832.09,265.478 832.198,261.102 832.232,260.987C832.269,260.863 844.496,255.205 844.496,255.205C844.184,230.782 840.723,211.936 838.648,202.739L833.106,206.521C833.106,206.521 832.279,201.75 832.299,201.644C832.354,201.347 841.553,190.502 841.552,190.501C834.568,167.203 827.695,154.733 824.043,149.171L819.418,153.58L817.631,150.189L824.775,136.209C814.713,121.183 804.607,112.295 799.734,108.495L795.306,113.411C795.306,113.411 792.459,111.068 792.291,110.986C792.513,110.759 797.459,99.407 797.459,99.407C791.278,91.153 771.762,80.686 766.942,78.17C766.963,78.23 759.749,97.538 759.686,98.019L755.864,98.019ZM792.291,110.986C792.288,110.989 792.286,110.99 792.285,110.99C792.284,110.99 792.283,110.988 792.283,110.985C792.283,110.983 792.286,110.984 792.291,110.986Z" style="fill:rgb(19,64,100);"></path> </g> </svg> 